<svg xmlns="http://www.w3.org/2000/svg" viewBox="0 0 44.84 39.48">
    <defs>
        <style>.cls-1{fill:#fff;}</style>
    </defs>
    <title>资源 10</title>
    <g id="图层_2" data-name="图层 2">
        <g id="图层_1-2" data-name="图层 1">
            <path class="cls-1"
                  d="M43.77,7.41l-7-7A1.34,1.34,0,0,0,35.81,0H28.43a1.29,1.29,0,0,0-1.3,1.24C27,3.39,25,5.08,22.42,5.08s-4.59-1.69-4.71-3.85A1.29,1.29,0,0,0,16.42,0H9a1.3,1.3,0,0,0-.92.38l-7,7a3.67,3.67,0,0,0,0,5.18L6,17.46a1.26,1.26,0,0,0,.92.38h0a1.26,1.26,0,0,0,.92-.38h0V35.26A4.22,4.22,0,0,0,12,39.48h20.8A4.22,4.22,0,0,0,37,35.26V17.45h0a1.28,1.28,0,0,0,.92.38h0a1.26,1.26,0,0,0,.92-.38l4.88-4.87a3.67,3.67,0,0,0,0-5.18Zm-1.84,3.34L38,14.7l-1.32-1.32a1.3,1.3,0,0,0-2.22.92v21a1.63,1.63,0,0,1-1.62,1.62H12a1.63,1.63,0,0,1-1.62-1.62v-21a1.3,1.3,0,0,0-.8-1.2,1.24,1.24,0,0,0-.5-.1,1.29,1.29,0,0,0-.92.38L6.87,14.7l-4-3.95a1.06,1.06,0,0,1,0-1.5L9.57,2.6h5.74a7.2,7.2,0,0,0,7.11,5.08A7.2,7.2,0,0,0,29.54,2.6h5.73l6.66,6.65a1.06,1.06,0,0,1,0,1.5Z"/>
            <path class="cls-1"
                  d="M22.42,13.94a1.3,1.3,0,0,0-1.3,1.3v15a1.3,1.3,0,0,0,2.6,0v-15A1.3,1.3,0,0,0,22.42,13.94Z"/>
        </g>
    </g>
</svg>