<svg xmlns="http://www.w3.org/2000/svg" viewBox="0 0 45 39.29"><defs><style>.cls-1{fill:#ff41b5;}</style></defs><title>资源 9</title><g id="图层_2" data-name="图层 2"><g id="图层_1-2" data-name="图层 1"><path class="cls-1" d="M44.26,7.49,37.37.61A2.09,2.09,0,0,0,35.89,0H30a1.25,1.25,0,0,0-1.21,1A6.27,6.27,0,0,1,22.5,5.41,6.27,6.27,0,0,1,16.25,1a1.25,1.25,0,0,0-1.2-1H9.11A2.09,2.09,0,0,0,7.63.61L.74,7.49A2.5,2.5,0,0,0,.74,11l4.32,4.32a1.23,1.23,0,0,0,1.75,0l1.5-1.51V36.18a3.11,3.11,0,0,0,3.11,3.11H33.58a3.11,3.11,0,0,0,3.11-3.11V13.85l1.5,1.51a1.23,1.23,0,0,0,1.75,0L44.26,11A2.5,2.5,0,0,0,44.26,7.49ZM24,30.15a1.5,1.5,0,0,1-3,0v-15a1.5,1.5,0,1,1,3,0Z"/></g></g></svg>