<svg xmlns="http://www.w3.org/2000/svg" viewBox="0 0 40.77 42.7">
    <defs>
        <style>.cls-1{fill:#fff;}</style>
    </defs>
    <title>资源 12</title>
    <g id="图层_2" data-name="图层 2">
        <g id="图层_1-2" data-name="图层 1">
            <path class="cls-1" d="M40.32,16.76,21.23.32a1.27,1.27,0,0,0-1.69,0L.45,16.76a1.3,1.3,0,0,0,1.7,2l2-1.69V38.4a4.31,4.31,0,0,0,4.3,4.3h24a4.31,4.31,0,0,0,4.3-4.3V17l2,1.69a1.3,1.3,0,0,0,1.84-.13A1.3,1.3,0,0,0,40.32,16.76ZM34.06,15.5V38.4a1.7,1.7,0,0,1-1.7,1.7H8.41a1.7,1.7,0,0,1-1.7-1.7V15.5a1.21,1.21,0,0,0-.15-.57L20.39,3,34.21,14.93A1.21,1.21,0,0,0,34.06,15.5Z"/>
            <path class="cls-1" d="M15.09,21.5a5.3,5.3,0,1,0,5.3-5.3A5.3,5.3,0,0,0,15.09,21.5Zm8,0a2.7,2.7,0,1,1-2.7-2.7A2.71,2.71,0,0,1,23.09,21.5Z"/>
        </g>
    </g>
</svg>