<svg xmlns="http://www.w3.org/2000/svg" viewBox="0 0 41.17 43.1"><defs><style>.cls-1{fill:#ff41b5;}</style></defs><title>资源 11</title><g id="图层_2" data-name="图层 2"><g id="图层_1-2" data-name="图层 1"><path class="cls-1" d="M40.65,16.81,21.57.36a1.51,1.51,0,0,0-2,0L.52,16.81a1.5,1.5,0,0,0-.16,2.12,1.52,1.52,0,0,0,1.14.52,1.46,1.46,0,0,0,1-.37L3.8,18h.31V38.6a4.51,4.51,0,0,0,4.5,4.5h24a4.51,4.51,0,0,0,4.5-4.5V18h.31l1.32,1.13a1.5,1.5,0,1,0,2-2.27ZM20.59,26.7a5,5,0,1,1,5-5A5,5,0,0,1,20.59,26.7Z"/><circle class="cls-1" cx="20.59" cy="21.7" r="2"/></g></g></svg>